Coordinates
version=1
nRows=22
nColumns=24
inDegrees=yes

Units are S.I. units (second, meters, Newtons, ...)
Angles are in degrees.

endheader
time	pelvis_tilt	pelvis_list	pelvis_rotation	pelvis_tx	pelvis_ty	pelvis_tz	hip_flexion_r	hip_adduction_r	hip_rotation_r	knee_angle_r	ankle_angle_r	subtalar_angle_r	mtp_angle_r	hip_flexion_l	hip_adduction_l	hip_rotation_l	knee_angle_l	ankle_angle_l	subtalar_angle_l	mtp_angle_l	lumbar_extension	lumbar_bending	lumbar_rotation
      1.58750000	      3.07917881	      5.13733433	     -3.22685618	      0.41160862	      1.07519279	      0.31219033	     14.11072014	     -6.32901007	      1.63039910	    -61.26013371	      0.47191093	    -13.18359274	     10.16710409	      0.92870078	     10.54071988	     -4.36706525	     -3.75009470	     -0.07254896	     -0.24012496	      0.97845193	      2.39297309	     -3.66583011	      0.49197029
      1.59166667	      3.09337532	      5.18148887	     -3.12981743	      0.41620806	      1.07552367	      0.31202258	     14.60390222	     -6.33153670	      1.75525315	    -60.89506542	      0.86953797	    -13.56299946	     10.07291478	      0.50869247	     10.61489850	     -4.21293326	     -3.50973698	      0.01327668	     -0.18037523	      0.92607299	      2.36227506	     -3.70634919	      0.38358645
      1.59583333	      3.10032070	      5.22376233	     -3.03261493	      0.42079919	      1.07582039	      0.31185146	     15.09456556	     -6.33107266	      1.88891461	    -60.49151929	      1.23991477	    -13.89390319	      9.98954175	      0.09288439	     10.68563779	     -4.05877096	     -3.26184362	      0.09277613	     -0.12280793	      0.87984315	      2.34229322	     -3.74430664	      0.28466280
      1.60000000	      3.10835507	      5.25650112	     -2.92168747	      0.42539116	      1.07610493	      0.31165366	     15.56548785	     -6.32720171	      1.99959645	    -60.04743898	      1.62904819	    -14.22829613	      9.89448243	     -0.32641679	     10.74502221	     -3.90532742	     -3.01882243	      0.18141934	     -0.07775876	      0.82623231	      2.32042399	     -3.78120244	      0.17146399
      1.60416667	      3.10760745	      5.29790716	     -2.81362160	      0.42995917	      1.07634235	      0.31147790	     16.04009897	     -6.33114517	      2.11496705	    -59.56746311	      1.96707842	    -14.49871637	      9.80201217	     -0.73706906	     10.81174269	     -3.74678297	     -2.76681775	      0.26019983	     -0.03330386	      0.77337313	      2.30143941	     -3.82490961	      0.06173655
      1.60833333	      3.07694768	      5.31834204	     -2.70608288	      0.43456213	      1.07653895	      0.31140858	     16.52410205	     -6.29669177	      2.25175384	    -59.01920868	      2.15850348	    -14.61983132	      9.76495071	     -1.11362949	     10.84051013	     -3.65406531	     -2.52622379	      0.30376223	      0.00508403	      0.75271489	      2.24431125	     -3.86853779	      0.01392439
      1.61250000	      3.08745347	      5.38565815	     -2.61622069	      0.43908728	      1.07671304	      0.31115419	     16.97830973	     -6.34037073	      2.36487232	    -58.49303386	      2.59072246	    -14.91596974	      9.67208118	     -1.54513675	     10.94576190	     -3.44149065	     -2.24496827	      0.40682336	      0.05014236	      0.69899963	      2.30289468	     -3.90636007	     -0.10418753
      1.61666667	      3.06212515	      5.42660267	     -2.51188342	      0.44365275	      1.07684150	      0.31101833	     17.44332638	     -6.34038293	      2.48439104	    -57.89753450	      2.86971965	    -15.08480071	      9.58468725	     -1.93709046	     11.00324365	     -3.27501313	     -1.97868127	      0.48180214	      0.07731919	      0.64672119	      2.29723179	     -3.95846632	     -0.21339971
      1.62083333	      3.02947732	      5.47163040	     -2.40560635	      0.44823097	      1.07693852	      0.31087499	     17.90026823	     -6.34846244	      2.59764467	    -57.26069412	      3.12971835	    -15.22131713	      9.48923650	     -2.32345797	     11.06452728	     -3.10554027	     -1.71141084	      0.55491224	      0.09639853	      0.58811702	      2.31997352	     -4.00939614	     -0.32731929
      1.62500000	      2.98707092	      5.50716116	     -2.30417258	      0.45276998	      1.07699025	      0.31079861	     18.35959940	     -6.33672961	      2.72202565	    -56.57887141	      3.26982120	    -15.27559146	      9.45003830	     -2.68558621	     11.10745076	     -3.02107098	     -1.46300814	      0.59601602	      0.12236723	      0.56438856	      2.27449890	     -4.06302412	     -0.37417058
      1.62916667	      2.95389302	      5.55504820	     -2.22900632	      0.45732175	      1.07701376	      0.31072962	     18.80310872	     -6.33667093	      2.86542557	    -55.86954502	      3.43487648	    -15.34130336	      9.41028586	     -3.07152595	     11.16662406	     -2.88616492	     -1.18214893	      0.64816926	      0.16362878	      0.54052486	      2.27489874	     -4.11558071	     -0.42359507
      1.63333333	      2.94452074	      5.62749586	     -2.14332580	      0.46185640	      1.07702392	      0.31052765	     19.21387134	     -6.38563913	      2.97121423	    -55.15038094	      3.68176277	    -15.43811805	      9.31358254	     -3.49074195	     11.26595322	     -2.65265881	     -0.88917327	      0.75228981	      0.17206639	      0.47850111	      2.37340552	     -4.17108690	     -0.54090095
      1.63750000	      2.87722186	      5.67192977	     -2.04900923	      0.46639035	      1.07694495	      0.31048951	     19.66427103	     -6.38114762	      3.09539249	    -54.36505549	      3.77699099	    -15.45592821	      9.27672849	     -3.82456826	     11.31117596	     -2.57306204	     -0.64509448	      0.79315248	      0.18774422	      0.45483538	      2.32607122	     -4.23279430	     -0.58385148
      1.64166667	      2.83195116	      5.72873901	     -1.98354711	      0.47092874	      1.07685571	      0.31044273	     20.08636651	     -6.38930670	      3.23460139	    -53.55501049	      3.86926634	    -15.47440128	      9.23696248	     -4.19436562	     11.37783468	     -2.44267981	     -0.36942266	      0.84559528	      0.21815832	      0.42936123	      2.34583552	     -4.29871431	     -0.62887889
      1.64583333	      2.78939170	      5.78838017	     -1.91752091	      0.47547998	      1.07673546	      0.31038543	     20.49244277	     -6.40510129	      3.35919209	    -52.71423007	      3.94164845	    -15.48362650	      9.19617671	     -4.56690318	     11.44649650	     -2.31125736	     -0.09798312	      0.90645902	      0.24277899	      0.40278719	      2.37695699	     -4.36426842	     -0.67457217
      1.65000000	      2.75671587	      5.85834708	     -1.84855200	      0.48005048	      1.07659589	      0.31023000	     20.87576911	     -6.44747940	      3.45632912	    -51.84596175	      3.96775587	    -15.47641174	      9.11211462	     -4.96285360	     11.53505979	     -2.09136673	      0.19843521	      1.00827837	      0.24139841	      0.34492797	      2.50203500	     -4.42192812	     -0.76921712
      1.65416667	      2.68248737	      5.92467833	     -1.76924272	      0.48455442	      1.07636661	      0.31021843	     21.29148516	     -6.46774142	      3.56972334	    -50.94142684	      3.99922081	    -15.47034668	      9.07487243	     -5.28006016	     11.60046315	     -2.01949466	      0.42557658	      1.05342652	      0.24671192	      0.31917317	      2.46817001	     -4.49882685	     -0.80604654
      1.65833333	      2.64092871	      5.99522266	     -1.71332354	      0.48914968	      1.07615090	      0.31010641	     21.65836074	     -6.50551446	      3.66332089	    -50.00486810	      3.92390322	    -15.43986742	      8.98364406	     -5.66321803	     11.68635734	     -1.81748686	      0.71312049	      1.14976665	      0.24167363	      0.25354234	      2.59945279	     -4.56941336	     -0.89400054
      1.66250000	      2.55601069	      6.06641084	     -1.65014070	      0.49368717	      1.07583248	      0.31008177	     22.06641180	     -6.53132106	      3.75342765	    -49.05400628	      3.94487413	    -15.43438795	      8.95667519	     -5.96570908	     11.76015986	     -1.78148822	      0.94417579	      1.18927268	      0.25249929	      0.23467098	      2.54622337	     -4.64989643	     -0.91426423
      1.66666667	      2.49092177	      6.14284349	     -1.61378578	      0.49825471	      1.07550777	      0.31010005	     22.43966046	     -6.55495768	      3.86771162	    -48.06652317	      3.92256129	    -15.41410125	      8.92752368	     -6.29966316	     11.84083448	     -1.69389942	      1.19107328	      1.24218157	      0.28203256	      0.21460666	      2.56480819	     -4.74815231	     -0.93065019
      1.67083333	      2.44723557	      6.22528657	     -1.54582251	      0.50282541	      1.07519301	      0.30995928	     22.76878229	     -6.61635022	      3.92811047	    -47.03311627	      3.64331838	    -15.35936923	      8.81372281	     -6.66549935	     11.93451801	     -1.47726705	      1.43750595	      1.39146088	      0.27483555	      0.12915918	      2.75535344	     -4.80573639	     -1.01620150
      1.67500000	      2.37502591	      6.30060495	     -1.49544648	      0.50735198	      1.07479765	      0.30999403	     23.12162400	     -6.64221260	      4.02572444	    -45.98166631	      3.51907551	    -15.35379094	      8.72187686	     -6.97902122	     12.00549764	     -1.34879113	      1.64651921	      1.47340952	      0.28472146	      0.05792393	      2.82512428	     -4.90786721	     -1.06848210
